<svg width="153" height="24" viewBox="0 0 153 24" fill="none" xmlns="http://www.w3.org/2000/svg">
<g clip-path="url(#clip0_25_177)">
<path d="M89.4223 0C90.3458 0.113729 91.2727 0.213673 92.1652 0.497996C94.5154 1.24671 96.483 2.50118 97.6813 4.74217C98.3206 5.93719 98.6522 7.23473 98.7358 8.57536C99.1235 14.7917 95.4087 20.4902 89.5575 22.7011C87.8104 23.361 86.0134 23.7582 84.1353 23.71C82.8776 23.6772 81.6577 23.3774 80.4585 23.0552C79.2119 22.72 78.0351 22.7795 76.8334 23.1991C75.4696 23.6746 74.062 23.9323 72.6095 23.8961C71.5171 23.8694 70.5049 23.604 69.6684 22.8656C69.4263 22.6519 69.2833 22.82 69.1067 22.9259C67.2683 24.0244 65.3368 24.1985 63.3778 23.3559C61.9021 22.7217 61.0828 21.5327 60.9682 19.9104C60.8433 18.139 61.5687 16.8362 63.1461 15.9945C64.2505 15.4051 65.4747 15.3026 66.6661 15.064C67.6499 14.8667 68.6415 14.7081 69.627 14.5194C70.3714 14.3764 70.5824 14.0826 70.529 13.3175C70.4368 11.9959 69.4582 10.8758 68.1797 10.6294C66.5705 10.3192 65.1998 10.9421 64.5606 12.2802C64.3616 12.6972 64.2324 13.1375 64.1928 13.6001C64.1661 13.9146 64.0308 14.0662 63.6879 14.0059C63.0668 13.8965 62.4422 13.8069 61.8185 13.7164C61.4291 13.6596 61.4317 13.3977 61.4834 13.1064C61.7599 11.5702 62.5 10.3166 63.7629 9.38353C66.0476 7.69482 69.6451 7.95071 71.6128 9.94614C72.6293 10.9766 73.0377 12.2492 73.0523 13.6622C73.0704 15.3707 73.0678 17.0792 73.0549 18.7877C73.0514 19.1978 73.1815 19.3245 73.6088 19.3891C74.5702 19.5347 75.5153 19.7915 76.4681 19.9974C76.979 20.1077 77.4967 20.0879 78.0119 20.0431C78.4667 20.0034 78.7855 19.8001 79.0293 19.3745C80.7126 16.4347 82.4055 13.5002 84.1302 10.5846C84.971 9.16296 85.9031 7.7939 87.048 6.59371C88.5263 5.04286 90.2838 3.94606 92.3953 3.46874C92.7821 3.38086 93.168 3.38689 93.5238 3.59281C93.9046 3.81338 93.902 4.1201 93.5195 4.34584C93.4463 4.38892 93.3653 4.42683 93.2834 4.4475C91.9214 4.79214 91.0358 5.7373 90.3174 6.85908C88.9131 9.05009 87.7734 11.3876 86.5871 13.6983C85.6541 15.5154 84.6712 17.2989 83.2893 18.8265C82.7501 19.4227 82.2013 20.0095 81.6499 20.5945C81.5069 20.7461 81.4259 20.8642 81.6749 20.9805C84.1543 22.1341 86.6638 22.571 89.1828 21.1459C90.6775 20.3007 91.7741 19.029 92.6494 17.5634C94.2414 14.8977 95.2158 12.0243 95.4923 8.92947C95.6095 7.61555 95.4561 6.31542 94.984 5.0756C94.1682 2.9337 92.4969 1.75246 90.3303 1.43885C86.8456 0.93482 83.64 1.8033 80.7764 3.87283C78.8389 5.2729 77.4717 7.07965 76.8377 9.40765C76.6697 10.0254 76.612 10.6587 76.7283 11.2842C77.0324 12.9178 78.6175 13.7302 80.1983 13.0754C80.4619 12.9669 80.7057 12.8092 80.9547 12.667C81.1666 12.5464 81.3631 12.3956 81.5827 12.2922C81.8369 12.1733 82.1298 12.1061 82.3365 12.3534C82.5243 12.5783 82.3822 12.8273 82.2418 13.0263C82.1031 13.2236 81.9411 13.4166 81.7542 13.5674C80.5731 14.522 79.2584 15.1966 77.7388 15.4224C75.6359 15.7351 73.8328 14.192 73.707 12.0441C73.5554 9.43436 74.5771 7.27178 76.2355 5.38319C78.9328 2.30991 82.4192 0.71167 86.42 0.143023C86.8163 0.0870201 87.2143 0.0482488 87.6114 0.000861585C88.2145 0.000861585 88.8175 0.000861585 89.4205 0.000861585L89.4223 0ZM70.5385 17.2593C70.5256 16.396 70.6212 16.4804 69.7804 16.6381C68.6122 16.8569 67.4406 17.0559 66.2715 17.2705C65.6797 17.379 65.087 17.4867 64.5753 17.8417C63.8792 18.3242 63.5992 19.0031 63.7112 19.8165C63.8189 20.6022 64.3659 21.0382 65.0879 21.2501C67.631 21.9971 70.5816 20.1421 70.5376 17.2593H70.5385ZM75.9839 21.8102C75.2646 21.481 74.5814 21.1183 73.8285 20.9339C73.2375 20.7892 72.6362 20.7892 72.0401 20.89C71.6627 20.9538 71.3578 21.158 71.2897 21.5603C71.2285 21.9256 71.4809 22.1436 71.7678 22.303C71.9418 22.3995 72.1271 22.4934 72.3183 22.5356C73.6347 22.8268 74.827 22.4426 75.9831 21.811L75.9839 21.8102Z" fill="black"/>
<path d="M125.863 23.9521C124.536 23.5153 124.499 22.4572 124.615 21.3251C124.441 21.3225 124.398 21.4655 124.321 21.556C123.702 22.2892 122.952 22.8656 122.127 23.3412C121.619 23.6342 121.066 23.7944 120.475 23.6686C119.334 23.4257 118.784 22.4202 119.083 21.0752C119.414 19.5882 120.107 18.2803 121.135 17.1516C121.918 16.2917 122.696 15.4276 123.475 14.5642C123.589 14.4385 123.722 14.3239 123.785 14.0671C123.144 14.2162 122.567 14.0085 121.976 13.8913C121.822 13.8612 121.697 13.9551 121.615 14.0826C121.421 14.3842 121.169 14.6685 121.058 14.9993C120.624 16.2934 119.791 17.3429 118.998 18.4104C117.627 20.2567 116.019 21.867 114.051 23.0862C113.515 23.4188 112.956 23.7358 112.311 23.7961C110.544 23.9624 109.581 22.7114 110.044 20.8443C110.383 19.4761 111.077 18.2604 111.787 17.0637C113.216 14.6564 114.679 12.2707 116.128 9.87464C116.199 9.75574 116.353 9.63942 116.283 9.49726C116.208 9.34562 116.023 9.42489 115.888 9.41972C115.601 9.40852 115.313 9.40163 115.027 9.41886C114.66 9.44126 114.584 9.20174 114.579 8.92775C114.573 8.66497 114.533 8.34015 114.94 8.32292C115.496 8.29966 116.054 8.26433 116.607 8.29363C116.871 8.30741 117.034 8.26433 117.185 8.04894C118.274 6.50756 119.282 4.92138 119.854 3.10602C120.039 2.52014 120.352 2.23237 120.979 2.18757C121.654 2.13932 122.322 2.0971 122.994 2.20566C123.471 2.28321 123.539 2.37195 123.389 2.83204C123.054 3.86422 122.514 4.79731 121.949 5.71404C121.497 6.44725 121.02 7.16495 120.544 7.88179C120.344 8.18248 120.368 8.31775 120.763 8.29707C121.02 8.28415 121.28 8.32723 121.535 8.30655C121.918 8.27467 122.051 8.46939 122.064 8.81058C122.081 9.27411 121.975 9.40766 121.557 9.41369C121.054 9.42058 120.551 9.42747 120.049 9.41196C119.775 9.40335 119.592 9.49985 119.441 9.7273C117.451 12.717 115.537 15.7515 113.972 18.9919C113.616 19.7295 113.3 20.4851 113.103 21.2829C112.957 21.8696 113.213 22.1927 113.814 22.2237C114.259 22.2461 114.617 22.0747 114.948 21.7929C116.834 20.1904 118.247 18.2088 119.512 16.1108C120.402 14.6349 121.166 13.0883 121.992 11.5771C122.308 10.999 122.545 10.9137 123.072 11.3109C123.769 11.8356 124.518 11.8882 125.318 11.6736C125.733 11.5625 126.143 11.4298 126.558 11.3143C126.799 11.2471 127.045 11.2075 127.229 11.441C127.43 11.6969 127.3 11.9399 127.157 12.1553C126.864 12.5981 126.563 13.0358 126.244 13.4606C124.904 15.2432 123.75 17.1447 122.647 19.0781C122.285 19.7122 122.043 20.3825 122.245 21.1347C122.378 21.6258 122.563 21.7137 123.022 21.4785C123.41 21.2803 123.727 20.9856 124.039 20.6893C125.265 19.527 126.089 18.0752 126.946 16.6476C127.582 15.5895 128.216 14.5298 128.862 13.4778C129.154 13.0022 129.283 12.4715 129.394 11.9399C129.482 11.5177 129.719 11.304 130.124 11.2902C130.841 11.2661 131.558 11.2687 132.276 11.2609C132.495 11.2583 132.575 11.3953 132.598 11.5875C132.631 11.8537 132.549 12.0967 132.455 12.3396C131.835 13.9465 130.851 15.3517 129.971 16.813C129.251 18.0054 128.513 19.1858 127.78 20.3696C127.551 20.7392 127.378 21.1313 127.292 21.5586C127.226 21.8912 127.298 22.1919 127.573 22.4107C127.852 22.6321 128.141 22.5503 128.421 22.4038C129.372 21.9058 130.047 21.0959 130.753 20.3231C130.843 20.2249 130.876 20.0663 130.912 19.9293C131.832 16.4167 133.914 13.7673 136.983 11.8976C138.232 11.1377 139.629 10.7793 141.109 11.0068C142.276 11.186 142.644 11.9623 142.09 13.0091C141.814 13.5303 141.479 14.0154 141.061 14.4359C140.926 14.5711 140.773 14.6978 140.567 14.622C140.341 14.5393 140.312 14.3359 140.309 14.1248C140.304 13.6389 140.347 13.1495 140.173 12.6765C139.95 12.0743 139.582 11.9037 138.992 12.1725C138.581 12.3594 138.249 12.6619 137.955 12.9979C136.348 14.8382 135.074 16.8966 134.012 19.0902C133.754 19.6243 133.598 20.187 133.617 20.7926C133.653 21.8636 134.461 22.4167 135.451 22.0049C137.098 21.3191 138.475 20.2507 139.649 18.9204C141.328 17.0172 142.65 14.8641 143.961 12.7049C144.527 11.7727 145.101 10.8439 145.664 9.90996C145.741 9.78245 145.919 9.65579 145.815 9.49468C145.72 9.34562 145.523 9.42489 145.372 9.41799C145.128 9.40766 144.882 9.40076 144.639 9.41799C144.288 9.44212 144.128 9.27411 144.133 8.9424C144.136 8.64257 144.109 8.3143 144.57 8.3143C145.097 8.3143 145.627 8.26433 146.151 8.29621C146.415 8.31258 146.591 8.26864 146.74 8.05755C147.812 6.52565 148.845 4.97049 149.393 3.15858C149.578 2.54599 149.907 2.216 150.572 2.18154C151.389 2.13846 152.202 2.04541 152.997 2.32629V2.75708C152.569 3.9857 151.915 5.09801 151.222 6.18963C150.861 6.75914 150.493 7.3252 150.117 7.88437C149.918 8.1799 149.985 8.27812 150.332 8.27295C150.617 8.26864 150.904 8.32809 151.189 8.32378C151.598 8.31775 151.608 8.60035 151.611 8.87692C151.616 9.16555 151.571 9.42747 151.175 9.41799C150.687 9.40593 150.198 9.43523 149.711 9.41024C149.355 9.39215 149.131 9.51535 148.935 9.81691C147.5 12.0165 146.073 14.2205 144.813 16.5269C144.016 17.9873 143.214 19.4486 142.731 21.0537C142.629 21.3932 142.506 21.7792 142.847 22.0549C143.179 22.3237 143.579 22.2565 143.956 22.1376C144.103 22.0911 144.238 21.9971 144.368 21.9093C144.983 21.4983 145.471 20.9469 145.967 20.4127C147.424 18.8437 148.726 17.1481 149.976 15.412C150.077 15.2716 150.182 15.0123 150.385 15.126C150.618 15.257 150.439 15.4836 150.361 15.6585C150.102 16.2374 149.75 16.7622 149.39 17.2808C147.872 19.4649 146.145 21.4466 143.896 22.9156C143.355 23.2688 142.792 23.5911 142.157 23.7479C140.602 24.1313 139.404 23.0974 139.514 21.5095C139.557 20.9021 139.77 20.3446 139.942 19.7346C139.65 20.0103 139.382 20.2447 139.135 20.4988C137.834 21.8421 136.402 22.9957 134.599 23.604C132.969 24.1537 131.586 23.5092 130.957 21.8972C130.846 21.6129 130.776 21.5922 130.572 21.8188C129.618 22.8794 128.479 23.641 127.068 23.9538H125.861L125.863 23.9521Z" fill="black"/>
<path d="M0 4.30793C0.181774 4.19937 0.384223 4.20454 0.585811 4.20454C3.19784 4.20454 5.81073 4.17783 8.42189 4.21488C10.0217 4.23814 11.4655 4.73872 12.6259 5.90359C14.6694 7.95502 14.3782 11.2928 12.0065 12.9694C11.7851 13.1263 11.5517 13.2667 11.2915 13.4356C11.4526 13.607 11.6654 13.6561 11.8472 13.7492C14.0328 14.8701 15.0881 17.0611 14.5772 19.4253C14.1663 21.3277 12.3684 22.9802 10.2801 23.3653C9.99927 23.417 9.71154 23.4584 9.42725 23.4593C6.41377 23.4661 3.39943 23.4644 0.385946 23.4627C0.257584 23.4627 0.129223 23.4437 0.000861486 23.4343C0.000861486 17.0585 0.000861486 10.6828 0.000861486 4.30707L0 4.30793ZM6.02868 14.9261C6.02868 14.9261 6.02868 14.9235 6.02868 14.9227C5.02505 14.9227 4.02142 14.933 3.01779 14.9166C2.65769 14.9106 2.52846 15.0665 2.52846 15.4008C2.53105 17.093 2.53191 18.7852 2.52674 20.4764C2.52588 20.778 2.63443 20.9227 2.9549 20.921C4.97681 20.9133 6.99958 20.9589 9.0189 20.9003C11.2622 20.8349 12.6458 18.6482 11.7248 16.6639C11.189 15.5103 10.1742 15.0011 8.95257 14.9356C7.98081 14.883 7.00302 14.9252 6.02868 14.9252V14.9261ZM5.81159 6.72468C4.90703 6.72468 4.00247 6.73846 3.09877 6.71865C2.69818 6.71003 2.52243 6.8453 2.52502 7.25972C2.53622 8.79593 2.53363 10.3321 2.52674 11.8683C2.52502 12.2483 2.6663 12.4008 3.06345 12.3965C4.77177 12.3801 6.4801 12.3853 8.18843 12.3905C8.59591 12.3913 8.98875 12.3233 9.37297 12.2001C10.5351 11.827 11.3242 10.8267 11.3527 9.69973C11.3863 8.39529 10.7126 7.40188 9.48755 6.94697C9.06542 6.79016 8.63037 6.72037 8.17981 6.72296C7.39069 6.72726 6.60071 6.72468 5.81159 6.72296V6.72468Z" fill="black"/>
<path d="M96.9172 23.9521C95.9876 23.5023 95.5396 22.6433 95.749 21.6198C96.0135 20.3248 96.5889 19.1522 97.2592 18.0269C98.1482 16.5355 99.0424 15.0476 99.9599 13.5734C100.296 13.0341 100.431 12.4378 100.588 11.8442C100.662 11.5633 100.802 11.3841 101.095 11.3324C101.892 11.192 102.697 11.2687 103.498 11.2713C103.744 11.2721 103.777 11.4961 103.778 11.684C103.778 11.976 103.663 12.2423 103.555 12.5094C102.902 14.1162 101.901 15.5258 101.015 16.9999C100.365 18.0821 99.6868 19.1479 99.0287 20.2257C98.7668 20.6548 98.5264 21.0959 98.4558 21.6077C98.4403 21.7231 98.4291 21.83 98.4592 21.9463C98.56 22.3435 98.666 22.4029 99.0252 22.1936C100.072 21.5844 101.019 20.8426 101.902 20.0155C103.575 18.4474 104.947 16.6226 106.35 14.8236C107.092 13.8732 107.835 12.9238 108.577 11.9743C109.004 11.4298 109.555 11.1506 110.254 11.1696C110.641 11.1799 111.029 11.1851 111.416 11.1696C111.786 11.1558 111.822 11.3462 111.738 11.6323C111.726 11.6736 111.712 11.7167 111.688 11.7503C110.845 12.916 110.79 14.3299 110.461 15.6567C110.06 17.2688 109.796 18.9196 108.997 20.411C107.998 22.2763 106.514 23.461 104.385 23.7634C103.791 23.8478 103.21 23.7582 102.651 23.5557C102.009 23.324 101.598 22.8828 101.514 22.0928C100.527 23.0121 99.4792 23.6884 98.2094 23.9512H96.9172V23.9521ZM107.943 14.1662C107.812 14.3127 107.676 14.4548 107.551 14.6065C106.555 15.8127 105.557 17.0172 104.567 18.2286C103.977 18.9506 103.347 19.6416 102.819 20.4127C102.693 20.5979 102.618 20.7375 102.958 20.7513C103.265 20.7642 103.414 20.9624 103.406 21.2708C103.402 21.4431 103.391 21.6146 103.386 21.7869C103.375 22.1272 103.399 22.4753 103.728 22.6606C104.062 22.8484 104.327 22.6106 104.584 22.4262C104.996 22.1298 105.355 21.774 105.611 21.3372C106.91 19.1263 107.452 16.6631 107.944 14.1662H107.943Z" fill="black"/>
<path d="M15.3981 15.9781C15.4628 13.3356 16.3673 11.0654 18.6029 9.54465C22.558 6.85392 29.057 8.27123 30.1675 14.5642C30.6103 17.0715 30.0391 19.3547 28.4531 21.351C27.2832 22.8243 25.6774 23.5428 23.8545 23.7875C21.5509 24.0968 19.4971 23.4946 17.7741 21.9179C16.4156 20.6746 15.7221 19.0755 15.4877 17.2688C15.4326 16.844 15.3654 16.4158 15.3981 15.9781ZM27.6364 15.9376C27.6804 15.2811 27.5391 14.566 27.278 13.875C25.8376 10.0719 21.3114 9.82725 19.2938 12.3448C17.7578 14.2618 17.5898 16.4597 18.6149 18.6671C19.9347 21.5086 23.5461 22.2668 25.9134 20.2249C27.1764 19.1358 27.6623 17.6711 27.6364 15.9376Z" fill="black"/>
<path d="M54.5268 10.6027C54.0694 10.5777 53.5568 10.7104 53.0675 10.9275C52.4549 11.1997 52.0165 11.6236 51.9579 12.337C51.8967 13.0806 52.2956 13.5648 52.8952 13.9C53.6886 14.3437 54.5527 14.6185 55.421 14.8718C56.3868 15.1536 57.3361 15.4853 58.2484 15.9057C59.3873 16.4304 60.2816 17.2033 60.5917 18.487C60.9975 20.168 60.3453 21.7869 58.8765 22.8019C56.4833 24.4552 51.9432 24.2054 49.7912 21.8713C49.1925 21.2217 48.7988 20.4756 48.611 19.6114C48.5292 19.2349 48.6058 19.0048 49.0038 18.904C49.6293 18.7464 50.2513 18.5749 50.8715 18.3966C51.1489 18.3164 51.2894 18.425 51.3281 18.6843C51.6495 20.8047 54.42 22.0428 56.6202 21.1872C56.877 21.0873 57.1087 20.946 57.3146 20.7625C58.239 19.9354 58.1838 18.7197 57.1638 18.0106C56.3764 17.4626 55.4538 17.2093 54.5553 16.9121C53.5206 16.5691 52.4661 16.2848 51.4944 15.7713C49.6284 14.7848 48.8634 13.1194 49.4148 11.2265C49.6913 10.277 50.2831 9.55067 51.1386 9.11471C53.5895 7.86455 56.031 7.91538 58.3777 9.39386C59.2796 9.96251 59.862 10.8155 60.1403 11.8606C60.2402 12.2354 60.1515 12.4534 59.7423 12.5412C59.1961 12.6593 58.6568 12.8118 58.1201 12.9669C57.8298 13.0504 57.6756 12.9841 57.5756 12.6782C57.1337 11.3247 56.0913 10.6052 54.5268 10.6035V10.6027Z" fill="black"/>
<path d="M36.8372 20.2214C37.2033 19.1987 37.5703 18.1769 37.9338 17.1542C38.8849 14.4781 39.8394 11.8029 40.7793 9.12247C40.8905 8.80541 41.0472 8.67875 41.3927 8.65894C42.0095 8.62361 42.6212 8.58656 43.2371 8.66583C43.6963 8.72442 43.7256 8.7563 43.5602 9.19829C42.3851 12.3276 41.2083 15.4568 40.0324 18.5853C39.4923 20.0224 38.9366 21.4535 38.4214 22.8992C38.2741 23.3111 38.0476 23.5506 37.6228 23.5015C37.0077 23.43 36.3961 23.5282 35.781 23.4946C35.3692 23.4722 35.2167 23.2723 35.0875 22.932C34.263 20.759 33.424 18.5922 32.5909 16.4218C31.676 14.0378 30.7628 11.6529 29.8496 9.26808C29.6463 8.73562 29.7066 8.63223 30.2692 8.61758C30.8283 8.60293 31.3891 8.62275 31.9482 8.60983C32.3609 8.60121 32.5857 8.76491 32.7296 9.17417C33.853 12.3681 34.9962 15.5542 36.1394 18.7412C36.3177 19.2383 36.5262 19.7251 36.7209 20.2171C36.7596 20.2188 36.7975 20.2197 36.8363 20.2214H36.8372Z" fill="black"/>
<path d="M44.5948 16.0694C44.5948 13.7871 44.5948 11.5048 44.5948 9.22328C44.5948 8.67962 44.6439 8.6262 45.1755 8.615C45.6062 8.60638 46.037 8.62189 46.4668 8.61155C46.8761 8.60121 47.0673 8.76491 47.057 9.19657C47.0406 9.91341 47.0587 10.632 47.0639 11.3497C47.0837 13.9318 47.1328 16.5149 47.1138 19.0962C47.1043 20.386 47.0604 21.6775 47.0647 22.9681C47.0664 23.3455 46.9097 23.4791 46.5487 23.467C46.0757 23.4515 45.6011 23.4463 45.1281 23.4696C44.712 23.4911 44.5836 23.3214 44.5862 22.9147C44.6 20.6324 44.5931 18.3509 44.5931 16.0686L44.5948 16.0694Z" fill="black"/>
<path d="M45.8328 2.98625C46.9114 2.98539 47.7358 3.81768 47.7255 4.89725C47.7143 6.02248 46.901 6.89268 45.8509 6.90388C44.7585 6.91508 43.922 6.05436 43.9203 4.91707C43.9186 3.79356 44.7172 2.98711 45.8337 2.98625H45.8328Z" fill="black"/>
<path d="M105.212 5.32029C105.821 5.32201 106.245 5.81139 106.211 6.46792C106.164 7.36224 105.177 8.36341 104.275 8.43406C103.682 8.48058 103.253 8.0541 103.222 7.38981C103.178 6.42656 104.244 5.3177 105.213 5.32115L105.212 5.32029Z" fill="black"/>
<path d="M135.024 6.42226C135.022 7.34674 133.944 8.44526 133.031 8.45216C132.469 8.45647 131.999 7.88782 132.056 7.27265C132.133 6.44122 132.845 5.60548 133.66 5.38836C134.481 5.17038 135.025 5.58308 135.023 6.42226H135.024Z" fill="black"/>
</g>
<defs>
<clipPath id="clip0_25_177">
<rect width="153" height="23.9521" fill="white"/>
</clipPath>
</defs>
</svg>
