<svg width="16" height="16" viewBox="0 0 16 16" fill="none" xmlns="http://www.w3.org/2000/svg">
<path d="M16 4.22255C16 4.16398 15.9941 4.10542 15.9911 4.04978C16.0177 3.42313 15.8522 2.8082 15.4916 2.21962C14.7704 0.898975 13.3604 0 11.7377 0C10.1149 0 8.72566 0.884334 8.00148 2.19034C7.27434 0.884334 5.87327 0 4.26233 0C3.25439 0 2.32625 0.348463 1.59616 0.931186C1.04046 1.32357 0.614816 1.87408 0.339922 2.56515C0.334011 2.57979 0.328099 2.59444 0.322187 2.60615C0.310364 2.64129 0.295585 2.6735 0.283761 2.70864C0.115278 3.15666 0.0147792 3.6369 0.00295585 4.13763C0.00295585 4.15813 0.00295585 4.1757 0 4.19619C0 4.20498 0 4.21376 0 4.22255C0 4.25476 0.00295585 4.28404 0.00591169 4.31332C0.00591169 4.42167 0.0118234 4.53001 0.0236468 4.63543C0.0266026 4.66764 0.0325143 4.69985 0.0354702 4.73206C0.0472936 4.81406 0.0561611 4.89605 0.0738962 4.97511C0.316276 6.30454 1.18234 7.41435 2.36468 7.99707C0.966562 8.69107 0.00295585 10.1171 0.00295585 11.7745C0.00295585 11.9239 0.0118234 12.0732 0.0266026 12.2167C0.0679845 12.7116 0.203953 13.2152 0.443377 13.7072C0.641419 14.1142 0.907445 14.4392 1.2119 14.7174C1.7203 15.2357 2.36468 15.6252 3.0859 15.8302C3.16867 15.8653 3.25439 15.9034 3.33715 15.9385C3.41696 15.9385 3.49381 15.9385 3.57066 15.9385C3.79826 15.9766 4.02882 16 4.26529 16C5.87622 16 7.2773 15.1157 8.00148 13.8097C8.68723 15.0425 9.97303 15.8946 11.4687 15.9883C11.4835 15.9912 11.4953 15.9971 11.5101 16.0029C11.5485 16.0029 11.5869 16 11.6253 15.9971C11.6638 15.9971 11.6992 16.0029 11.7377 16.0029C11.918 16.0029 12.0953 15.9883 12.2727 15.9649C12.3761 15.959 12.4796 15.9561 12.589 15.9502C12.6422 15.9268 12.6924 15.9034 12.7456 15.877C13.3959 15.7189 13.99 15.4202 14.4837 15.0044C15.2285 14.4539 15.7222 13.7013 15.8936 12.7086C15.9616 12.41 16 12.0996 16 11.7775C16 10.123 15.0364 8.694 13.6383 8C15.0364 7.306 16 5.87994 16 4.22255Z" fill="white"/>
</svg>
