<svg width="14" height="15" viewBox="0 0 14 15" fill="none" xmlns="http://www.w3.org/2000/svg">
<path d="M9.42181 7.4987C10.0875 6.99593 10.7931 6.34503 11.472 5.57965C13.4913 3.30148 14.5109 0.888646 13.7457 0.190606C12.9804 -0.507433 10.7245 0.774176 8.70301 3.05459C8.0019 3.84465 7.42686 4.64819 7.00001 5.39336C6.57315 4.64819 5.99811 3.84465 5.29701 3.05459C3.27552 0.774176 1.0196 -0.507433 0.254352 0.190606C-0.510892 0.888646 0.508697 3.30148 2.52797 5.5819C3.20696 6.34727 3.91028 6.99593 4.57821 7.50095C3.91249 8.00371 3.20696 8.65462 2.52797 9.41999C0.508697 11.6982 -0.510892 14.111 0.254352 14.809C1.0196 15.5071 3.27552 14.2255 5.29701 11.9451C5.99811 11.155 6.57315 10.3515 7.00001 9.60629C7.42686 10.3515 8.0019 11.155 8.70301 11.9451C10.7245 14.2255 12.9804 15.5071 13.7457 14.809C14.5109 14.111 13.4913 11.6982 11.472 9.41775C10.7931 8.65237 10.0897 8.00371 9.42181 7.4987Z" fill="white"/>
</svg>
