<svg width="15" height="15" viewBox="0 0 15 15" fill="none" xmlns="http://www.w3.org/2000/svg">
<path d="M14.4865 4.46832L13.7008 6.4589C13.424 7.15906 13.424 7.94064 13.7008 8.64081L14.4865 10.6314C15.439 13.0494 13.0495 15.4389 10.6315 14.4864L8.64094 13.7007C7.94078 13.4239 7.1592 13.4239 6.45904 13.7007L4.46846 14.4864C2.05045 15.4389 -0.33906 13.0494 0.613487 10.6314L1.39914 8.64081C1.67594 7.94064 1.67594 7.15906 1.39914 6.4589L0.613487 4.46832C-0.33906 2.05032 2.05045 -0.339194 4.46846 0.613353L6.45904 1.399C7.1592 1.67581 7.94078 1.67581 8.64094 1.399L10.6315 0.613353C13.0495 -0.339194 15.439 2.05032 14.4865 4.46832Z" fill="white"/>
</svg>
